<svg width="30" height="30" viewBox="0 0 30 30" fill="none" xmlns="http://www.w3.org/2000/svg">

    <!-- social icons -->

    <g id="gitHub">
        <path fill-rule="evenodd" clip-rule="evenodd"
              d="M12 2C6.475 2 2 6.475 2 12C2 16.425 4.8625 20.1625 8.8375 21.4875C9.3375 21.575 9.525 21.275 9.525 21.0125C9.525 20.775 9.5125 19.9875 9.5125 19.15C7 19.6125 6.35 18.5375 6.15 17.975C6.0375 17.6875 5.55 16.8 5.125 16.5625C4.775 16.375 4.275 15.9125 5.1125 15.9C5.9 15.8875 6.4625 16.625 6.65 16.925C7.55 18.4375 8.9875 18.0125 9.5625 17.75C9.65 17.1 9.9125 16.6625 10.2 16.4125C7.975 16.1625 5.65 15.3 5.65 11.475C5.65 10.3875 6.0375 9.4875 6.675 8.7875C6.575 8.5375 6.225 7.5125 6.775 6.1375C6.775 6.1375 7.6125 5.875 9.525 7.1625C10.325 6.9375 11.175 6.825 12.025 6.825C12.875 6.825 13.725 6.9375 14.525 7.1625C16.4375 5.8625 17.275 6.1375 17.275 6.1375C17.825 7.5125 17.475 8.5375 17.375 8.7875C18.0125 9.4875 18.4 10.375 18.4 11.475C18.4 15.3125 16.0625 16.1625 13.8375 16.4125C14.2 16.725 14.5125 17.325 14.5125 18.2625C14.5125 19.6 14.5 20.675 14.5 21.0125C14.5 21.275 14.6875 21.5875 15.1875 21.4875C17.1727 20.8173 18.8977 19.5415 20.1198 17.8395C21.3419 16.1376 21.9995 14.0953 22 12C22 6.475 17.525 2 12 2Z"
              fill="#000000"/>
    </g>

    <g id="linkedin">
        <path fill-rule="evenodd" clip-rule="evenodd"
              d="M22 3.47059V20.5294C22 20.9194 21.8451 21.2935 21.5693 21.5693C21.2935 21.8451 20.9194 22 20.5294 22H3.47059C3.08056 22 2.70651 21.8451 2.43073 21.5693C2.15494 21.2935 2 20.9194 2 20.5294V3.47059C2 3.08056 2.15494 2.70651 2.43073 2.43073C2.70651 2.15494 3.08056 2 3.47059 2H20.5294C20.9194 2 21.2935 2.15494 21.5693 2.43073C21.8451 2.70651 22 3.08056 22 3.47059ZM7.88235 9.64706H4.94118V19.0588H7.88235V9.64706ZM8.14706 6.41177C8.14861 6.18929 8.10632 5.96869 8.02261 5.76255C7.93891 5.55642 7.81542 5.36879 7.65919 5.21039C7.50297 5.05198 7.31708 4.92589 7.11213 4.83933C6.90718 4.75277 6.68718 4.70742 6.46471 4.70588H6.41177C5.95934 4.70588 5.52544 4.88561 5.20552 5.20552C4.88561 5.52544 4.70588 5.95934 4.70588 6.41177C4.70588 6.86419 4.88561 7.29809 5.20552 7.61801C5.52544 7.93792 5.95934 8.11765 6.41177 8.11765C6.63426 8.12312 6.85565 8.0847 7.06328 8.00458C7.27092 7.92447 7.46074 7.80422 7.62189 7.65072C7.78304 7.49722 7.91237 7.31346 8.00248 7.10996C8.09259 6.90646 8.14172 6.6872 8.14706 6.46471V6.41177ZM19.0588 13.3412C19.0588 10.5118 17.2588 9.41177 15.4706 9.41177C14.8851 9.38245 14.3021 9.50715 13.7799 9.77345C13.2576 10.0397 12.8143 10.4383 12.4941 10.9294H12.4118V9.64706H9.64706V19.0588H12.5882V14.0529C12.5457 13.5403 12.7072 13.0315 13.0376 12.6372C13.3681 12.2429 13.8407 11.9949 14.3529 11.9471H14.4647C15.4 11.9471 16.0941 12.5353 16.0941 14.0176V19.0588H19.0353L19.0588 13.3412Z"
              fill="#000000"/>


    </g>

    <g id="telegram">
        <path fill-rule="evenodd" clip-rule="evenodd"
              d="M22 12C22 17.5228 17.5228 22 12 22C6.47715 22 2 17.5228 2 12C2 6.47715 6.47715 2 12 2C17.5228 2 22 6.47715 22 12ZM12.3583 9.38244C11.3857 9.787 9.44177 10.6243 6.52657 11.8944C6.05318 12.0827 5.8052 12.2669 5.78263 12.4469C5.74448 12.7513 6.12559 12.8711 6.64455 13.0343C6.71515 13.0565 6.78829 13.0795 6.86327 13.1038C7.37385 13.2698 8.06068 13.464 8.41773 13.4717C8.74161 13.4787 9.1031 13.3452 9.50219 13.0711C12.226 11.2325 13.632 10.3032 13.7202 10.2831C13.7825 10.269 13.8688 10.2512 13.9273 10.3032C13.9858 10.3552 13.98 10.4536 13.9738 10.48C13.9361 10.641 12.4401 12.0318 11.6659 12.7515C11.4246 12.9759 11.2534 13.135 11.2184 13.1714C11.14 13.2528 11.0601 13.3298 10.9833 13.4038C10.509 13.8611 10.1532 14.204 11.003 14.764C11.4114 15.0331 11.7381 15.2556 12.0641 15.4776C12.4201 15.7201 12.7752 15.9619 13.2347 16.2631C13.3517 16.3398 13.4635 16.4195 13.5724 16.4971C13.9867 16.7925 14.3589 17.0579 14.8188 17.0155C15.086 16.991 15.362 16.7397 15.5022 15.9903C15.8335 14.2193 16.4847 10.382 16.6352 8.80081C16.6484 8.66228 16.6318 8.48498 16.6185 8.40715C16.6051 8.32932 16.5773 8.21842 16.4761 8.13633C16.3563 8.03911 16.1714 8.01861 16.0886 8.02C15.7125 8.0267 15.1354 8.22735 12.3583 9.38244Z"
              fill="#000000"/>


    </g>

    <g>

    </g>


    <!-- skills icons -->

    <g id="gitHubBig">
        <path fill-rule="evenodd" clip-rule="evenodd"
              d="M44 0C19.69 0 0 19.69 0 44C0 63.47 12.595 79.915 30.085 85.745C32.285 86.13 33.11 84.81 33.11 83.655C33.11 82.61 33.055 79.145 33.055 75.46C22 77.495 19.14 72.765 18.26 70.29C17.765 69.025 15.62 65.12 13.75 64.075C12.21 63.25 10.01 61.215 13.695 61.16C17.16 61.105 19.635 64.35 20.46 65.67C24.42 72.325 30.745 70.455 33.275 69.3C33.66 66.44 34.815 64.515 36.08 63.415C26.29 62.315 16.06 58.52 16.06 41.69C16.06 36.905 17.765 32.945 20.57 29.865C20.13 28.765 18.59 24.255 21.01 18.205C21.01 18.205 24.695 17.05 33.11 22.715C36.63 21.725 40.37 21.23 44.11 21.23C47.85 21.23 51.59 21.725 55.11 22.715C63.525 16.995 67.21 18.205 67.21 18.205C69.63 24.255 68.09 28.765 67.65 29.865C70.455 32.945 72.16 36.85 72.16 41.69C72.16 58.575 61.875 62.315 52.085 63.415C53.68 64.79 55.055 67.43 55.055 71.555C55.055 77.44 55 82.17 55 83.655C55 84.81 55.825 86.185 58.025 85.745C66.7597 82.796 74.3497 77.1822 79.7268 69.6937C85.1039 62.2052 87.9974 53.219 88 44C88 19.69 68.31 0 44 0Z"
              fill="black"/>

    </g>

    <g id="greensock">
        <path d="M67.365 119.745C65.8012 119.471 64.1812 118.729 63.2625 117.908C62.6388 117.253 62.2829 116.389 62.265 115.485C62.265 114.566 62.7337 113.276 63.4762 111.99C63.9262 111.266 64.2787 110.486 64.53 109.665C64.6875 109.099 65.0175 108.18 65.2725 107.595L65.7225 106.523L65.8387 99.3563C65.8987 95.3925 66.015 91.7213 66.1125 91.1513C66.3675 89.5088 66.795 87.9075 67.3612 86.3475L67.7925 85.3125L67.1662 84.9413C66.6 84.5888 66.1312 84.1013 64.275 81.8925C61.9912 79.1963 58.9837 77.7113 54.7237 77.205C53.3362 77.07 51.93 76.9688 50.5237 76.9125C44.2725 76.62 40.6987 75.3113 37.4775 72.1463C35.0737 69.7838 33.825 67.0275 33.3187 62.9663C32.6362 57.4763 31.875 54.6638 30.4687 52.38C30.1221 51.816 29.7228 51.2861 29.2762 50.7975L28.71 50.2313L27.4612 51.0338C26.7787 51.4838 25.8187 52.05 25.35 52.305C23.7862 53.1638 22.3012 54.12 20.8762 55.155C17.3812 57.6938 13.5712 60.8775 11.4825 62.9663C10.545 63.9038 10.0575 64.3125 9.83998 64.275C8.41498 64.0613 9.50623 57.8888 11.8312 53.2388C14.8012 47.2425 19.8 41.715 25.5825 37.9838C30.33 34.9163 38.0062 30.6975 41.5575 29.2125C47.865 26.5763 56.0287 23.7225 61.6162 22.2C62.79 21.8663 63.51 21.5738 63.9975 21.2438C65.0925 20.4825 66.165 20.1113 67.395 20.0925C68.43 20.0738 68.5275 20.055 69.525 19.3875C70.6987 18.6263 71.0475 18.585 72.2212 18.9975L72.9825 19.2713L73.92 18.6263L74.8575 18L76.2037 18.0188C77.2387 18.0375 77.7075 18 78.1575 17.805C78.7237 17.55 78.7425 17.5125 78.9 16.575C79.2525 14.5425 79.29 13.5263 79.0762 12.2963C78.8025 10.6763 78.765 4.3875 79.0387 3.15375C79.3312 1.82625 79.5262 1.5525 80.5237 1.065C82.0087 0.341252 83.1225 0.127502 85.68 0.127502C88.8037 0.127502 90.3862 0.558753 91.56 1.69125C92.6137 2.7075 92.79 5.08875 92.2425 10.6763C91.9087 13.8975 91.8712 14.7975 91.9687 16.905C92.0062 18.2513 92.1037 19.5225 92.145 19.6988C92.2237 20.0325 92.3025 20.0513 93.435 20.07C94.5487 20.0888 94.7437 20.1488 95.7975 20.6963C96.8137 21.225 97.575 21.87 97.7325 22.3388C97.7512 22.4363 97.9275 22.4363 98.2387 22.3388C98.8425 22.1625 99.3712 22.3575 99.8025 22.8863C100.057 23.22 100.211 23.2763 100.8 23.2763C101.602 23.2763 101.895 23.4713 102.559 24.45C102.869 24.8893 103.295 25.2344 103.789 25.4475C104.884 25.995 106.369 27.5175 106.935 28.7288C107.812 30.525 107.989 32.6138 107.441 34.4888C107.246 35.1938 107.246 35.2125 107.655 35.895C108.514 37.3613 108.829 39.1575 108.476 40.68L108.281 41.58L108.866 42.165C111.776 45.075 111.345 49.8225 107.794 54.06C107.397 54.544 107.062 55.0756 106.796 55.6425C106.114 57.4575 105.33 58.7288 104.317 59.7825L103.282 60.8363H102.229C101.175 60.8363 99.69 60.4838 98.79 60.015C98.4187 59.82 98.4 59.82 98.4787 60.0525C98.715 60.9113 99.3 64.4063 99.495 66.3413C99.8062 69.3113 99.7087 73.6275 99.3 75.4838C99.0013 76.8586 98.5008 78.1816 97.815 79.41C97.425 80.0363 97.4062 80.1713 97.4812 80.9325C97.5975 82.005 97.3462 83.805 96.915 84.9938C96.3862 86.3813 96.1912 87.0263 96.075 87.7275C95.9775 88.3313 95.9775 88.3313 96.4087 88.3313C96.975 88.3313 97.2862 88.665 97.2862 89.3288C97.2862 89.6213 97.0312 91.2038 96.72 92.8238C95.8612 97.3763 95.8012 97.8825 95.8012 102.296C95.7825 106.849 95.7825 106.808 96.8175 107.49L99.1425 108.994C101.143 110.321 103.285 111.422 105.529 112.275C108.791 113.565 109.241 113.895 109.241 114.99C109.241 115.478 109.144 115.654 108.735 116.044C107.486 117.255 105.022 117.529 100.061 117C97.4832 116.758 94.8955 116.635 92.3062 116.629C85.47 116.531 84.4725 116.295 83.5762 114.596C83.07 113.621 83.1675 112.35 83.8687 110.261C84.18 109.343 84.4537 108.405 84.69 107.449C85.1587 105.184 84.8475 102.488 83.7525 99.4425L82.815 96.8438C81.8962 94.2075 81.39 89.3813 81.9375 88.29C82.035 88.0763 82.2112 88.035 82.68 88.0538L83.265 88.1138L83.7525 87.0975C84.1237 86.295 84.5325 85.77 85.6462 84.6563L87.0712 83.2313L86.9925 82.3125C86.9325 81.435 85.7812 77.175 85.6237 77.1938C85.5637 77.1938 85.2525 77.625 84.9 78.1688C84.0412 79.4588 82.1475 81.45 81.0712 82.1738C80.6025 82.485 80.2125 82.8563 80.2125 82.9763C80.1937 83.505 79.7437 84.54 79.1962 85.26C78.6675 85.965 78.63 86.0813 78.7087 86.7038C78.8437 87.6225 78.5512 90.57 78.2025 92.115C77.8864 93.2622 77.4541 94.3742 76.9125 95.4338C75.5662 98.2275 74.55 100.725 74.295 101.88C74.1108 102.992 73.9931 104.114 73.9425 105.24C73.8825 106.568 73.7475 107.858 73.65 108.131C73.515 108.503 73.515 108.795 73.6312 109.361C73.7287 109.77 73.7887 110.689 73.7662 111.413C73.7475 112.41 73.8262 113.055 74.1187 114.225C74.625 116.216 74.7225 117.469 74.49 118.211C74.3325 118.68 74.1787 118.856 73.65 119.111C72.4762 119.715 69.1575 120.049 67.3612 119.738L67.365 119.745ZM72.1087 118.144C72.7912 117.949 73.38 117.364 73.38 116.835C73.38 116.599 73.185 115.916 72.9487 115.313C72.48 114.161 71.6775 111.113 71.6775 110.606C71.6775 110.351 71.6962 110.333 72.0862 110.546L72.5175 110.783V110.235C72.4549 109.73 72.3431 109.233 72.1837 108.75C71.8125 107.636 71.775 107.618 69.4087 107.479L67.8075 107.4L67.2225 107.966C66.9008 108.297 66.6189 108.665 66.3825 109.061C66.1275 109.568 66.03 110.333 66.1875 110.505C66.225 110.565 66.6187 110.505 67.0462 110.408C67.3 110.332 67.5618 110.287 67.8262 110.273C67.8262 110.291 67.395 110.644 66.8512 111.015C64.5075 112.774 63.6862 113.846 63.6862 115.215C63.6862 116.64 65.0325 117.754 67.1437 118.088C68.5875 118.301 71.4 118.361 72.105 118.148L72.1087 118.144ZM103.886 115.819C104.471 115.114 104.392 114.394 103.65 113.573C103.219 113.141 102.731 112.77 102.184 112.478C101.636 112.185 101.089 111.851 100.541 111.503C99.551 110.861 98.5338 110.261 97.4925 109.706C96.5925 109.219 95.715 108.709 94.8562 108.165L94.5037 107.891V102.521C94.5037 97.23 94.485 97.1513 94.2112 97.23C92.8425 97.6013 90.5775 97.7775 87.7087 97.7175L84.6037 97.68L85.0537 98.775C85.8937 100.845 86.325 103.62 86.325 106.804C86.325 107.996 86.2462 108.424 85.9537 109.264C85.7962 109.673 85.6612 110.085 85.5225 110.494C85.4625 110.67 85.68 110.805 86.4787 111.041C87.0637 111.218 87.9225 111.394 88.4137 111.45L89.3137 111.548L89.2162 112.448C89.1187 113.464 89.235 114.536 89.49 114.87C89.6475 115.065 90.2325 115.144 92.9475 115.26C94.9987 115.358 97.2262 115.571 98.9812 115.826C100.504 116.063 102.146 116.258 102.634 116.258C103.455 116.276 103.534 116.239 103.882 115.826L103.886 115.819ZM72.6187 106.68C72.6975 106.62 72.8137 105.566 72.855 104.318C73.0125 100.823 73.1475 100.313 74.9062 96.3675C76.35 93.1463 77.115 90.1388 77.055 88.0088L77.0175 86.7375L76.47 87.2663C75.3375 88.3988 76.1175 86.6213 77.4675 85.0388C78.4837 83.8275 78.8362 83.1638 78.99 82.0913C79.0687 81.66 79.2262 81.4463 79.89 80.94C82.3735 79.0639 84.2871 76.5349 85.4175 73.635C85.6912 72.93 86.3925 70.53 86.9812 68.3025C88.0762 64.1813 88.6612 62.4038 89.19 61.6425C89.385 61.35 89.4637 61.29 89.4262 61.485C89.143 62.5324 88.9214 63.5955 88.7625 64.6688C88.605 65.625 88.3125 67.5 88.1175 68.8088C87.7462 71.4863 87.3562 73.2038 86.8275 74.5313L86.475 75.4313L87.4125 77.8538C88.3875 80.3325 88.8375 82.1325 88.9162 83.8688L88.9762 84.8438L88.215 85.0013C87.2102 85.1791 86.3136 85.7396 85.7137 86.565C85.05 87.5213 84.6787 88.305 84.855 88.4775C84.9337 88.5563 85.89 88.7325 86.985 88.8675C88.6837 89.0625 89.3287 89.0625 91.575 88.9275C92.55 88.89 93.51 88.7925 94.4662 88.6538C94.68 88.575 94.8975 88.1475 95.2462 87.0338C96.0487 84.4763 96.2025 83.5763 96.105 81.78L96.0262 80.1975L96.435 79.6688C97.3912 78.4575 98.1337 76.2713 98.445 73.71C98.8162 70.5863 98.1337 64.0425 96.8625 58.4175C96.2587 55.74 96.0037 54.1388 96.0037 52.9688V51.9338L95.0475 52.0313C91.6087 52.4025 87.45 52.305 84.9112 51.7763C83.5237 51.5025 80.0287 50.4675 79.2675 50.1338L78.6637 49.86L78.585 50.5425C78.525 50.9138 78.4687 51.285 78.39 51.675C78.2737 52.0838 78.3112 52.1813 79.035 52.8863C79.935 53.805 80.2087 54.2738 80.2087 54.8963C80.2087 55.2863 79.995 55.6013 78.9 56.7338C78.1149 57.5715 77.2438 58.3244 76.3012 58.98L75.03 59.8388L74.4825 61.7325C72.5287 68.6663 72.1575 74.9738 73.4475 79.485L73.7587 80.6175L73.1325 81.3975C70.7887 84.345 69.4012 86.5913 69.1875 87.8438C69.0625 88.4605 68.9187 89.0733 68.7562 89.6813C68.25 91.6163 67.8562 94.4475 67.6837 97.515C67.5635 100.083 67.3948 102.648 67.1775 105.21L67.08 105.971L68.055 106.264C68.6025 106.44 69.4237 106.635 69.8925 106.714C70.77 106.849 72.3937 106.811 72.645 106.676L72.6187 106.68ZM91.5825 95.9363C93.105 95.8388 94.4925 95.6025 94.7662 95.37C94.8825 95.2913 95.0212 94.8825 95.0587 94.47L95.1562 93.7275L93.945 94.0013C92.9887 94.1963 92.0325 94.3125 91.0725 94.3913C88.7662 94.4888 86.445 94.4288 84.1575 94.1963C83.3962 94.08 83.3962 94.08 83.6287 95.0738C83.8237 95.8163 83.865 95.8538 85.8562 95.9925C87.1837 96.1088 89.04 96.09 91.5787 95.9325L91.5825 95.9363ZM90.3112 92.5388C92.3025 92.3625 94.785 91.935 95.2725 91.68C95.43 91.6013 95.565 91.3088 95.625 90.975L95.8012 89.94L95.8987 89.4525L95.4112 89.55C93.2437 90 91.6012 90.135 88.32 90.135C85.1175 90.135 84.7462 90.1163 83.9062 89.8238C83.5834 89.6877 83.2397 89.6078 82.89 89.5875C82.755 89.6663 82.7325 90.78 82.8525 91.56C82.9312 92.0288 83.01 92.1075 83.4787 92.2425C84.9637 92.6513 87.465 92.7488 90.315 92.5163L90.3112 92.5388ZM54.0637 74.9213C59.0625 73.4775 65.6062 69.2363 70.9575 63.9263C72.6975 62.1863 72.9112 61.9538 73.1437 61.1738L73.455 60.1763C73.4925 60.0975 73.1812 59.9625 72.7725 59.865C71.7 59.61 70.8787 58.9875 70.8787 58.4213C70.8787 58.0875 70.6837 57.7575 70.1175 57.15C69.1987 56.115 68.9662 55.665 68.8687 54.6713L68.79 53.8688L67.695 53.0888C67.0687 52.6388 64.8825 51.4275 62.5575 50.2575C60.7872 49.3939 59.0544 48.4555 57.3637 47.445C55.41 46.1363 54.1012 44.5725 53.3587 42.72C53.2237 42.3488 53.0475 42.0375 52.9875 42.0375C52.83 42.0375 48.435 46.275 46.56 48.2663C41.9325 53.1488 38.7487 57.3863 36.735 61.3125C36.2287 62.2875 35.6812 63.4425 35.5237 63.87L35.2312 64.65L35.5837 65.9588C35.7975 66.6638 36.2475 67.815 36.6 68.4975C37.83 70.92 39.2962 72.3825 41.7187 73.575C44.3175 74.865 46.62 75.315 50.4675 75.255C52.5375 75.2363 53.145 75.1763 54.06 74.9025L54.0637 74.9213ZM14.61 57.7913C17.8912 54.8813 22.4212 51.6975 27.9712 48.3975C31.605 46.23 45.6487 39.1988 52.1137 36.3263C53.2875 35.7975 54.3412 35.31 54.4575 35.2538C54.5737 35.175 54.9075 34.335 55.2187 33.3975C56.5875 29.0625 57.27 28.2038 59.7487 27.6375C60.06 27.5588 60.1387 27.4613 60.1387 27.15C60.1387 26.5838 60.5287 25.275 60.8625 24.69C61.1175 24.24 61.1175 24.2213 60.9 24.2813C60.765 24.3188 59.9437 24.555 59.085 24.81C47.1712 28.2488 36.7612 32.8163 27.7762 38.52C18.1875 44.6138 12.66 51.9188 11.0587 60.6675L10.9425 61.3125L12.1162 60.1613C12.7425 59.5163 13.875 58.4625 14.6175 57.8175L14.61 57.7913ZM102.99 59.4525C103.946 58.965 105.431 56.7188 105.979 54.9413C106.136 54.315 106.447 53.73 106.897 53.2425C108.341 51.6413 109.534 48.7313 109.552 46.74C109.552 43.635 107.794 42.4425 105.236 43.77C104.902 43.9275 104.632 44.0438 104.591 44.0063C104.456 43.8713 105.176 43.1663 106.057 42.6188C107.209 41.8575 107.426 41.4075 107.426 39.7875C107.443 38.4781 107.054 37.1955 106.312 36.1163C105.96 35.5875 105.825 35.2388 105.881 35.0213L106.234 33.7125C106.721 31.9725 106.545 29.9813 105.784 28.7138C104.651 26.8013 103.264 25.8638 101.329 25.7063L100.196 25.6275L100.86 26.37C102.832 28.5 103.789 31.1738 103.399 33.4613C103.204 34.635 103.027 34.8675 101.895 35.3175L101.231 35.5913L101.31 36.4913C101.445 37.9575 101.194 39.03 100.256 41.0025C99.7875 42 99.435 42.8963 99.4762 42.9938C99.5925 43.3275 100.882 43.95 101.899 44.205L102.896 44.4413L102.27 44.655C101.449 44.91 101.272 45.2813 101.272 46.6275C101.272 47.8575 101.449 48.3675 102.345 49.7138C102.754 50.2988 103.027 50.9063 103.069 51.255C103.147 51.8025 103.129 51.84 102.679 51.9975C102.169 52.1407 101.644 52.2262 101.115 52.2525C99.2775 52.3688 99.1425 52.4288 98.3212 53.2088C97.5787 53.9138 97.56 53.9513 97.56 54.7313C97.56 55.8038 97.9687 57.975 98.2237 58.2675C98.5575 58.62 100.41 59.5388 101.134 59.6738C101.758 59.8305 102.418 59.7545 102.99 59.46V59.4525ZM75.9375 57.99C77.13 57.0525 78.0675 56.115 78.5925 55.3125C78.9262 54.825 78.945 54.7275 78.7875 54.315C78.5137 53.6888 76.7175 52.0688 75.72 51.5813C75.0553 51.2835 74.3522 51.0802 73.6312 50.9775L72.4012 50.82L71.64 49.8638C70.0575 47.91 69.18 46.3875 67.9275 43.4363C66.8325 40.935 65.8762 39.4725 64.3537 38.025C63.7275 37.44 63.2812 36.9525 63.3187 36.9525C63.3975 36.9525 64.14 37.3238 64.9987 37.7738C66.4237 38.535 66.6 38.595 67.245 38.4975C69.57 38.2238 71.6212 35.55 72.3637 31.8C72.5775 30.7463 73.0087 29.67 73.4587 29.025C73.4775 29.0063 74.3775 29.5913 75.4312 30.3525C78.1087 32.2463 78.6937 32.5388 80.2162 32.5988C81.2137 32.6363 81.78 32.5613 83.5762 32.13C87.405 31.1925 91.545 30.8213 94.065 31.155C95.49 31.35 97.5412 31.9763 99.0637 32.6963C100.567 33.4013 100.86 33.4388 101.347 33.0075C101.756 32.655 101.756 32.5988 101.756 31.29C101.737 29.355 101.032 27.2663 99.96 26.0175C99.4125 25.3725 97.8712 24.3188 96.345 23.5163C95.8024 23.2285 95.2624 22.936 94.725 22.6388C94.0012 22.2075 93.1837 22.2675 90.9562 22.8525C88.3762 23.5163 87.6937 23.5163 84.7462 22.755C82.245 22.1288 82.0912 22.11 79.6275 22.5C78.3187 22.695 75.0375 22.5788 73.9425 22.2863C73.395 22.1288 72.8475 21.975 72.3225 21.78C71.3662 21.4088 69.705 21.3488 68.2012 21.6225C65.2125 22.1513 62.9475 23.7713 62.1262 25.9763C61.695 27.09 61.755 27.6188 62.3212 27.9675C63.2212 28.5338 64.41 30.0788 64.41 30.6825C64.41 30.72 64.1175 30.4688 63.7837 30.1163C62.9437 29.2388 62.1825 28.845 61.2825 28.845C60.7002 28.8612 60.134 29.0397 59.6476 29.3603C59.1613 29.681 58.7742 30.1311 58.53 30.66C58.2672 31.35 58.0455 32.055 57.8662 32.7713C57.3187 34.7625 56.8312 35.82 55.7962 37.2263C54.8775 38.4975 54.7425 39.0638 55.0725 40.4888C55.8937 44.0813 57.3187 45.5288 63.2737 48.9075C66.3975 50.685 67.9987 51.6825 69.1725 52.56C70.0725 53.2238 70.0912 53.265 70.0125 53.7713C69.8362 54.945 70.5787 56.2125 72.045 57.2475C72.4162 57.5025 72.6487 57.7763 72.6487 57.9713C72.6487 58.3238 73.6462 58.8113 74.3662 58.8113C74.775 58.8113 75.09 58.635 75.93 57.99H75.9375ZM100.02 51.405C102.285 51.4838 102.401 51.3075 101.194 49.9013C99.9225 48.435 99.5737 47.2463 100.042 45.9375L100.237 45.4313L99.435 45.0413C99.1612 44.9063 98.8875 44.7675 98.6137 44.67C98.4787 45.1988 98.34 45.705 98.2237 46.2338C97.9312 47.4263 97.5787 50.5125 97.56 51.8213C97.56 51.9375 97.755 51.9 98.0887 51.6863C98.5575 51.4125 98.7937 51.375 100.024 51.4125L100.02 51.405ZM92.4225 51.2888C93.7912 51.21 95.1975 51.1125 95.5687 51.0525L96.2512 50.955L96.33 48.7088C96.4462 45.5063 96.915 43.6125 98.3025 40.5825C99.2775 38.4338 99.7087 36.5588 99.495 35.1525C99.4162 34.5488 99.3787 34.5075 98.5575 34.155C97.0537 33.5579 95.4876 33.1315 93.8887 32.8838C92.3475 32.67 87.8137 32.7863 86.115 33.12C85.41 33.2363 84.1237 33.51 83.265 33.7238C81.135 34.2113 80.0025 34.155 78.3825 33.45C76.7812 32.745 75.765 32.1038 74.8087 31.2038C74.0475 30.4988 73.9687 30.4613 73.7737 30.6975C73.6162 30.8738 73.5375 31.4025 73.4812 32.535C73.4212 34.275 73.1475 35.19 72.3862 36.42C72.2171 36.6731 72.0727 36.9418 71.955 37.2225C71.955 37.2825 72.54 37.965 73.2637 38.7075C75.765 41.3063 76.995 41.97 78.9675 41.8313C79.6125 41.7713 80.0625 41.7938 80.0625 41.8688C80.0625 42.0263 78.7912 43.02 78.2662 43.2938C78.0112 43.4288 77.955 43.5675 77.9925 43.86L78.3037 45.9113C78.48 47.085 78.615 47.6288 78.7912 47.7863C79.26 48.1763 81.6825 49.4288 83.205 50.0513C85.1962 50.8538 86.2912 51.1463 87.8137 51.2813C89.6887 51.4388 89.7262 51.4388 92.4225 51.2813V51.2888ZM76.2712 49.14C76.3087 49.08 76.1737 47.9475 75.9187 46.6388C75.6075 44.8613 75.4312 44.2163 75.2362 44.04C75.1012 43.9238 74.3775 43.4138 73.6537 42.8888C72.7028 42.205 71.8018 41.4543 70.9575 40.6425L69.6112 39.315L68.8875 39.6863L68.1262 40.095C68.1903 40.4001 68.295 40.6952 68.4375 40.9725C68.6512 41.4413 69.0825 42.5925 69.3937 43.53C70.215 45.9713 70.86 47.145 72.48 49.2713L73.0837 50.0738L74.235 50.25C74.88 50.3475 75.525 50.4863 75.7012 50.5425C75.975 50.6588 76.0125 50.6025 76.0912 49.9763C76.1287 49.7025 76.1887 49.41 76.2675 49.1363L76.2712 49.14ZM101.017 24.8438C102.015 24.7463 102.191 24.6075 101.76 24.1613C101.486 23.8875 100.86 23.8688 100.354 24.1013C100.02 24.2588 99.945 24.2175 99.4162 23.6513C98.8687 23.0475 98.8312 23.025 98.145 23.1038C97.5187 23.1825 97.4212 23.1638 97.3425 22.9088C97.0986 22.4899 96.7955 22.1084 96.4425 21.7763C95.9989 21.2722 95.4443 20.8781 94.8225 20.625C93.6112 20.1563 92.9287 20.2163 91.7737 20.8613C88.4325 22.6763 88.5712 22.6575 85.3462 21.8363C82.3387 21.075 80.0925 20.295 79.3687 19.8038C78.765 19.395 77.475 18.945 76.3987 18.8063C75.5962 18.69 75.09 18.8663 74.3287 19.4888L73.92 19.8225L74.2912 20.4675C74.7975 21.3675 74.7412 21.4238 73.98 20.76C73.1587 20.0775 72.1837 19.6088 71.5575 19.5863C71.1075 19.5863 69.78 20.1713 69.6225 20.4263C69.5625 20.505 69.975 20.6025 70.5225 20.64C71.0887 20.7 71.8687 20.895 72.3975 21.1088C73.7662 21.6938 74.4675 21.8888 75.7162 22.0088C77.085 22.1438 79.5637 21.99 79.8562 21.7538C80.0137 21.6188 80.4412 21.5963 81.3412 21.675C82.5337 21.7538 83.0212 21.87 85.8525 22.6313C87.495 23.0813 88.6462 23.04 90.6 22.515C91.5 22.26 92.6325 22.0088 93.1012 21.9488C93.9037 21.87 94.0575 21.9113 95.31 22.4775C97.3012 23.3775 98.3587 23.9438 98.9437 24.4688C99.5287 24.975 99.6075 24.975 101.014 24.8588L101.017 24.8438ZM89.8837 21.4275L91.0762 20.8013L91.0387 19.59C91.02 18.75 90.9787 17.9288 90.9412 17.1113L90.8437 15.8625L89.6512 16.7813C88.9462 17.3288 88.2637 17.7375 87.9712 17.7975C87.1125 17.955 82.875 17.7975 82.4812 17.5838C81.9567 17.1963 81.4661 16.7647 81.015 16.2938L79.92 15.18L79.9012 15.8438C79.9012 16.1963 79.8637 16.8 79.785 17.1713C79.6875 17.8763 79.6875 17.895 80.4487 18.8513C80.8575 19.38 81.1912 19.8488 81.1912 19.905C81.1912 20.2763 86.835 22.035 88.1062 22.0538C88.515 22.0538 89.025 21.8775 89.8837 21.4275ZM87.6187 16.9913C89.025 16.7175 89.7075 15.7013 90.2362 13.125C90.7837 10.35 91.0575 5.99625 90.8025 4.14C90.5662 2.46 88.6912 1.7175 85.1175 1.83375C82.89 1.9125 81.9712 2.12625 81.21 2.77125C80.7412 3.16125 80.7412 3.2025 80.5275 5.055C80.1375 8.61 80.7225 13.6688 81.7387 15.5625C82.2262 16.4813 82.6575 16.8113 83.5537 16.9688C84.57 17.145 86.7375 17.145 87.615 16.9875L87.6187 16.9913Z"
              fill="black"/>

    </g>

    <g id="bootstrap">
        <g clip-path="url(#clip0_2_5691)">
            <path d="M0 75.7821C0 81.9781 5.08028 87 11.3468 87H76.6528C82.9204 87 88 81.9774 88 75.7821V11.2182C88 5.02187 82.9197 0 76.6532 0H11.3472C5.07959 0 0 5.02255 0 11.2179V75.7818V75.7821Z"
                  fill="#563D7C"/>
            <path d="M36.4919 38.4832V26.1629H47.4613C48.5063 26.1629 49.5135 26.2489 50.4836 26.4212C51.4536 26.5931 52.312 26.9003 53.0583 27.3431C53.8042 27.786 54.4013 28.4007 54.8492 29.1875C55.2968 29.9746 55.5209 30.9829 55.5209 32.2121C55.5209 34.4255 54.8492 36.0241 53.5058 37.0076C52.1628 37.9915 50.4464 38.4832 48.3568 38.4832H36.4919ZM24.7759 17.1621V69.8379H50.5956C52.9837 69.8379 55.3095 69.5429 57.5731 68.9526C59.8367 68.3623 61.8514 67.4525 63.6176 66.223C65.3834 64.9934 66.789 63.407 67.8337 61.4645C68.8787 59.5216 69.4008 57.2222 69.4008 54.5663C69.4008 51.2709 68.5923 48.4553 66.9757 46.1192C65.3587 43.7828 62.9084 42.1474 59.6249 41.2129C62.0129 40.0819 63.8166 38.6307 65.0355 36.8601C66.2541 35.0895 66.8636 32.8765 66.8636 30.2203C66.8636 27.7612 66.4532 25.6956 65.6323 24.0232C64.8114 22.3512 63.6547 21.0108 62.1621 20.0025C60.6699 18.9942 58.879 18.2686 56.7893 17.8262C54.7 17.3833 52.3866 17.1621 49.8493 17.1621H24.7759ZM36.4919 60.8371V46.3771H49.2523C51.7895 46.3771 53.8293 46.9548 55.3717 48.111C56.9138 49.2668 57.6851 51.1971 57.6851 53.9023C57.6851 55.2797 57.4486 56.4107 56.976 57.296C56.5033 58.1813 55.8691 58.8823 55.073 59.3986C54.2772 59.9151 53.3566 60.2839 52.312 60.5054C51.267 60.7263 50.1728 60.8371 49.0285 60.8371H36.4919Z"
                  fill="white"/>
        </g>
        <defs>
            <clipPath id="clip0_2_5691">
                <rect width="88" height="87" fill="white"/>
            </clipPath>
        </defs>
    </g>

    <g id="git">
        <g clip-path="url(#clip0_2_5685)">
            <path d="M103.02 47.8219L57.1758 1.98038C54.5372 -0.6598 50.2552 -0.6598 47.6134 1.98038L38.0937 11.5001L50.1699 23.5763C52.9762 22.6281 56.1943 23.2642 58.4313 25.5012C60.6789 27.7525 61.3106 30.9981 60.3393 33.8134L71.9775 45.452C74.7932 44.482 78.0421 45.1095 80.291 47.3621C83.434 50.5039 83.434 55.596 80.291 58.7399C77.1471 61.8841 72.055 61.8841 68.9095 58.7399C66.5454 56.3733 65.9613 52.9013 67.1582 49.9888L56.3046 39.1352L56.3034 67.6973C57.0902 68.0863 57.8088 68.6002 58.4313 69.2189C61.5743 72.3607 61.5743 77.4532 58.4313 80.5995C55.2874 83.7422 50.1929 83.7422 47.0535 80.5995C43.9105 77.4532 43.9105 72.3611 47.0535 69.2193C47.8067 68.4658 48.7019 67.869 49.6871 67.4635V38.6352C48.7004 38.2324 47.8048 37.6353 47.0535 36.8793C44.6722 34.5013 44.0996 31.0071 45.3198 28.0831L33.4154 16.1775L1.98105 47.6099C-0.660352 50.2525 -0.660352 54.5349 1.98105 57.1755L47.8259 103.018C50.4652 105.658 54.7464 105.658 57.3891 103.018L103.019 57.3884C105.66 54.747 105.66 50.4621 103.019 47.8219"
                  fill="#DE4C36"/>
        </g>
        <defs>
            <clipPath id="clip0_2_5685">
                <rect width="105" height="105" fill="white"/>
            </clipPath>
        </defs>
    </g>

    <g id="react">
        <g clip-path="url(#clip0_2_5687)">
            <path d="M92.9055 32.7027C91.703 32.2887 90.4903 31.9051 89.2686 31.5523C89.4738 30.7106 89.6627 29.8792 89.8304 29.0623C92.5837 15.6483 90.7838 4.84178 84.6359 1.28375C78.7415 -2.12722 69.1015 1.42949 59.3658 9.93342C58.4063 10.773 57.4681 11.6368 56.552 12.524C55.9388 11.934 55.3148 11.3556 54.6802 10.7888C44.4766 1.69616 34.2492 -2.13608 28.108 1.43215C22.2188 4.85374 20.4749 15.0127 22.9537 27.7254C23.2003 28.9844 23.4787 30.237 23.7887 31.4819C22.341 31.8947 20.9441 32.3342 19.6072 32.8019C7.64431 36.9881 0.00463867 43.5483 0.00463867 50.3529C0.00463867 57.3808 8.20617 64.43 20.666 68.7043C21.6762 69.0495 22.6947 69.3692 23.7208 69.6634C23.3875 71.0042 23.0917 72.354 22.8336 73.7114C20.4705 86.2035 22.3159 96.1223 28.1892 99.5222C34.2554 103.033 44.4369 99.4247 54.3505 90.7268C55.1544 90.0196 55.9406 89.2925 56.7083 88.546C57.7003 89.5066 58.7188 90.4393 59.7626 91.343C69.3659 99.6365 78.85 102.985 84.7176 99.5762C90.7781 96.055 92.7479 85.3995 90.1906 72.4356C89.9891 71.42 89.7632 70.4094 89.5131 69.4047C90.2281 69.1921 90.9299 68.9732 91.614 68.7455C104.567 64.4384 112.995 57.4747 112.995 50.3529C112.995 43.5234 105.109 36.919 92.9055 32.7027ZM90.0961 64.1474C89.4782 64.3525 88.8444 64.5505 88.1982 64.7432C86.7682 60.1995 84.8385 55.3684 82.4768 50.3764C84.7304 45.5036 86.5859 40.734 87.9758 36.22C89.1317 36.5558 90.2533 36.9097 91.3346 37.2832C101.791 40.8961 108.168 46.2372 108.168 50.3529C108.168 54.7367 101.28 60.4277 90.0961 64.1474ZM85.4556 73.3765C86.5864 79.1087 86.7475 84.2916 85.9985 88.3435C85.3258 91.9844 83.9726 94.4115 82.2989 95.3839C78.7384 97.4526 71.1234 94.7637 62.9109 87.6706C61.94 86.8305 60.9926 85.9634 60.0698 85.0703C63.2538 81.5756 66.4356 77.5131 69.5411 73.0008C75.0035 72.5144 80.164 71.7188 84.8438 70.6331C85.0693 71.5426 85.2732 72.4573 85.4556 73.3765ZM38.5256 95.0264C35.0467 96.2592 32.2758 96.2946 30.6008 95.3254C27.0368 93.2624 25.5551 85.298 27.5761 74.6151C27.8164 73.3527 28.0914 72.0972 28.401 70.8502C33.0292 71.8779 38.1522 72.6168 43.6274 73.0624C46.7541 77.4776 50.0277 81.5358 53.327 85.0894C52.6258 85.7703 51.9081 86.4338 51.1744 87.0793C46.7903 90.9252 42.3973 93.654 38.5256 95.0264ZM22.2276 64.1204C16.718 62.2302 12.1679 59.7738 9.04919 57.0933C6.24649 54.6848 4.8319 52.2932 4.8319 50.3529C4.8319 46.2234 10.9656 40.9564 21.1961 37.3766C22.4377 36.9425 23.7371 36.5327 25.0855 36.1482C26.4996 40.7641 28.3543 45.5904 30.5924 50.4707C28.3251 55.4233 26.444 60.3267 25.0162 64.997C24.0796 64.7278 23.1498 64.4355 22.2276 64.1204ZM27.6909 26.7947C25.5674 15.9031 26.9776 7.68706 30.5267 5.62497C34.3066 3.42867 42.6652 6.56011 51.4754 14.4115C52.0499 14.9247 52.6151 15.4482 53.1707 15.9819C49.8878 19.52 46.6442 23.548 43.5453 27.9371C38.2312 28.4315 33.1444 29.2253 28.4677 30.2889C28.1795 29.131 27.9205 27.9661 27.6909 26.7951V26.7947ZM76.43 38.8739C75.3254 36.9589 74.1797 35.0679 72.9939 33.2024C76.599 33.66 80.0532 34.2673 83.2968 35.0098C82.3232 38.1425 81.1094 41.4175 79.6807 44.7753C78.6364 42.7867 77.5526 40.8191 76.43 38.8739ZM56.5542 19.4443C58.7805 21.8652 61.0103 24.5678 63.2035 27.5003C58.7545 27.2894 54.298 27.2886 49.849 27.4977C52.0443 24.5922 54.2931 21.8931 56.5542 19.4443ZM36.5509 38.9071C35.4424 40.8367 34.3788 42.792 33.3612 44.7713C31.9558 41.4255 30.7531 38.1355 29.7711 34.9584C32.9948 34.2346 36.4326 33.6427 40.0148 33.1935C38.8158 35.0704 37.6608 36.9754 36.5509 38.9067V38.9071ZM40.1176 67.8569C36.4168 67.4423 32.9273 66.881 29.7044 66.1767C30.7019 62.9429 31.9311 59.5829 33.3669 56.1653C34.3886 58.1461 35.4566 60.1026 36.5699 62.033C37.7148 64.0176 38.9003 65.9614 40.1176 67.8569ZM56.6875 81.6027C54.3995 79.1255 52.1176 76.3848 49.8891 73.4372C52.0527 73.5222 54.2582 73.5656 56.5 73.5656C58.803 73.5656 61.0796 73.5138 63.3204 73.4137C61.1202 76.4145 58.8988 79.1592 56.6875 81.6027ZM79.7262 55.9907C81.2365 59.446 82.5094 62.7883 83.5202 65.9667C80.2443 66.7171 76.7072 67.3214 72.9803 67.7701C74.1745 65.8699 75.331 63.9461 76.449 61.9998C77.5857 60.0214 78.6783 58.0179 79.7262 55.9907ZM72.2679 59.5794C70.5563 62.5634 68.7486 65.4909 66.8474 68.357C63.4037 68.6018 59.9523 68.7234 56.5 68.7216C52.9836 68.7216 49.5634 68.6118 46.2699 68.3974C44.3191 65.5378 42.4769 62.6053 40.747 59.6059H40.7475C39.0258 56.6225 37.4176 53.5745 35.9264 50.4685C37.4138 47.3618 39.0171 44.3124 40.7329 41.3267L40.7325 41.3271C42.4476 38.3407 44.2752 35.4206 46.2112 32.5734C49.5713 32.3182 53.0171 32.1853 56.4995 32.1853H56.5C59.9983 32.1853 63.4484 32.3195 66.8077 32.5765C68.7242 35.4195 70.5401 38.3295 72.252 41.301C73.9735 44.2801 75.598 47.3147 77.123 50.3999C75.6137 53.5166 73.9943 56.5783 72.2679 59.5794ZM82.2252 5.48056C86.0086 7.67067 87.4801 16.5024 85.1029 28.0842C84.9511 28.8231 84.7807 29.5757 84.5953 30.339C79.9071 29.2528 74.8168 28.4452 69.4873 27.9433C66.3827 23.506 63.1655 19.4717 59.936 15.9792C60.7824 15.1604 61.6489 14.3628 62.5348 13.5871C70.8767 6.30141 78.673 3.42468 82.2252 5.48056ZM56.5 40.2263C62.0723 40.2263 66.5897 44.7603 66.5897 50.3529C66.5897 55.9456 62.0723 60.4795 56.5 60.4795C50.9277 60.4795 46.4102 55.9456 46.4102 50.3529C46.4102 44.7603 50.9277 40.2263 56.5 40.2263Z"
                  fill="#00D8FF"/>
        </g>
        <defs>
            <clipPath id="clip0_2_5687">
                <rect width="113" height="101" fill="white"/>
            </clipPath>
        </defs>
    </g>

    <g id="sass">
        <g clip-path="url(#clip0_2_5689)">
            <path d="M100.673 50.0766C96.603 50.0975 93.0653 51.0694 90.1035 52.5063C89.0162 50.3721 87.9295 48.4708 87.738 47.076C87.5246 45.4493 87.2691 44.4561 87.5246 42.5122C87.7805 40.5683 88.9312 37.8001 88.9098 37.589C88.8887 37.3778 88.6538 36.3846 86.3098 36.3637C83.9658 36.3424 81.9413 36.8073 81.7068 37.42C81.4724 38.0326 81.025 39.4273 80.7266 40.8637C80.3216 42.9771 76.0386 50.5198 73.5881 54.471C72.7993 52.9291 72.1174 51.5765 71.968 50.499C71.755 48.8722 71.4991 47.879 71.755 45.9351C72.0109 43.9912 73.1617 41.2235 73.1402 41.0119C73.1187 40.8007 72.8843 39.8075 70.5403 39.7866C68.1958 39.7653 66.1713 40.2302 65.9373 40.8429C65.7029 41.4559 65.4469 42.8923 64.957 44.2871C64.4667 45.6818 58.7769 58.275 57.2852 61.5285C56.6824 62.8453 56.0501 64.1487 55.3886 65.4376C55.3886 65.4376 55.3672 65.501 55.3032 65.6066C55.0954 66.0107 54.8824 66.4122 54.6643 66.811V66.8318C54.3444 67.4028 54.0035 67.9307 53.833 67.9307C53.705 67.9307 53.4706 66.4095 53.8755 64.3387C54.7278 59.9652 56.7524 53.1615 56.7313 52.9291C56.7313 52.8022 57.1148 51.6191 55.4101 51.006C53.7475 50.3934 53.1511 51.4075 53.0017 51.4075C52.8527 51.4075 52.7458 51.7668 52.7458 51.7668C52.7458 51.7668 54.6003 44.118 49.2085 44.118C45.8417 44.118 41.1958 47.7734 38.8943 51.0694C36.278 52.4811 33.6639 53.8968 31.052 55.3166C29.7953 56.0139 28.4951 56.7113 27.2803 57.3661C27.1949 57.2818 27.1099 57.1758 27.0244 57.0915C20.5034 50.1822 8.442 45.3012 8.95339 36.0257C9.14534 32.6449 10.3171 23.7705 32.1178 12.9947C50.0608 4.22583 64.3392 6.65549 66.8111 12.0436C70.3484 19.7349 59.1608 34.0183 40.6204 36.0887C33.5455 36.8708 29.8373 34.1661 28.9 33.152C27.9197 32.0953 27.7703 32.0318 27.4079 32.2435C26.8115 32.5606 27.1949 33.5113 27.4079 34.0605C27.9622 35.4969 30.2422 38.0326 34.0994 39.2796C37.5091 40.378 45.7988 40.991 55.8361 37.1454C67.0666 32.8348 75.8466 20.8546 73.2682 10.8183C70.6893 0.633908 53.641 -2.72556 37.5091 2.95799C27.9197 6.33921 17.52 11.6634 10.0402 18.594C1.15363 26.834 -0.253039 33.997 0.322334 36.9976C2.38984 47.6465 17.2006 54.5771 23.1248 59.7114C22.8263 59.8804 22.5489 60.0286 22.3149 60.1555C19.3526 61.6132 8.05811 67.4658 5.24523 73.6568C2.04891 80.6716 5.75708 85.7009 8.20756 86.3765C15.8154 88.4686 23.6362 84.7076 27.8342 78.4953C32.0323 72.2834 31.5209 64.2119 29.5818 60.5144C29.5604 60.4722 29.5393 60.4296 29.4964 60.3875C30.2637 59.9439 31.052 59.479 31.8194 59.0354C33.2296 58.2088 34.6578 57.4126 36.1029 56.6474C35.3781 58.6126 34.8452 60.958 34.5897 64.3387C34.2698 68.3113 35.9105 73.4665 38.063 75.4947C39.0223 76.3828 40.1515 76.4037 40.8763 76.4037C43.3908 76.4037 44.5205 74.3329 45.7778 71.8819C47.3119 68.8818 48.6971 65.3954 48.6971 65.3954C48.6971 65.3954 46.971 74.8191 51.6595 74.8191C53.3641 74.8191 55.0902 72.6214 55.8575 71.5017V71.5226C55.8575 71.5226 55.9 71.4592 55.9855 71.3114C56.156 71.0368 56.2624 70.8674 56.2624 70.8674V70.8257C56.9443 69.6421 58.4789 66.9587 60.7589 62.5004C63.6998 56.7534 66.5342 49.5696 66.5342 49.5696C66.5342 49.5696 66.7901 51.3232 67.6634 54.239C68.1753 55.9505 69.2401 57.831 70.0929 59.648C69.411 60.5991 68.9846 61.127 68.9846 61.127L69.0061 61.1483C68.4518 61.8665 67.8554 62.6481 67.1945 63.4094C64.8716 66.1558 62.1016 69.3045 61.7178 70.2126C61.2699 71.2901 61.3768 72.0722 62.2296 72.7062C62.8475 73.1711 63.9553 73.234 65.085 73.1711C67.1735 73.0229 68.6437 72.5158 69.3681 72.1991C70.4978 71.7976 71.819 71.1846 73.0548 70.276C75.3352 68.6067 76.72 66.2192 76.5925 63.0714C76.5285 61.3386 75.9531 59.6059 75.2498 57.9787C75.4632 57.6833 75.6547 57.3874 75.8681 57.0915C79.4693 51.8724 82.2612 46.1462 82.2612 46.1462C82.2612 46.1462 82.5171 47.8998 83.3905 50.8161C83.8168 52.2951 84.6907 53.901 85.4575 55.4643C82.0693 58.1903 79.9807 61.3594 79.2349 63.4302C77.8926 67.2759 78.9365 69.0082 80.9185 69.4097C81.8133 69.6 83.092 69.1772 84.0298 68.7757C85.2231 68.3956 86.6297 67.7408 87.9724 66.7684C90.2529 65.0995 92.4474 62.775 92.3195 59.6272C92.2555 58.1903 91.8721 56.7743 91.3392 55.4009C94.2161 54.2182 97.9242 53.563 102.655 54.1122C112.799 55.2953 114.802 61.5706 114.418 64.2123C114.035 66.8531 111.904 68.29 111.201 68.7336C110.497 69.1777 110.263 69.3254 110.327 69.6421C110.412 70.107 110.753 70.0862 111.35 70.0014C112.181 69.8537 116.678 67.8672 116.869 63.0075C117.189 56.7956 111.222 50.0132 100.673 50.0766ZM22.4214 76.2346C19.0542 79.8687 14.3662 81.2421 12.3417 80.0803C10.1681 78.8333 11.0204 73.4665 15.1545 69.6213C17.669 67.2759 20.9083 65.0991 23.0608 63.7683C23.5507 63.4724 24.2755 63.0501 25.1493 62.5217C25.2983 62.437 25.3838 62.3948 25.3838 62.3948L25.8952 62.0776C27.4078 67.5713 25.9591 72.4103 22.4214 76.2346ZM46.9285 59.7114C45.7563 62.543 43.3058 69.7903 41.8141 69.3888C40.5354 69.0508 39.7466 63.5571 41.5582 58.1269C42.4745 55.4009 44.4136 52.147 45.5433 50.8796C47.3759 48.8509 49.4005 48.1744 49.8904 48.9991C50.5087 50.0766 47.6529 57.9365 46.9285 59.7114ZM67.152 69.3041C66.6617 69.5578 66.1932 69.7269 65.9798 69.6C65.8308 69.5153 66.1932 69.1772 66.1932 69.1772C66.1932 69.1772 68.7292 66.473 69.7305 65.2473C70.3063 64.5291 70.9877 63.684 71.7125 62.7329V63.0075C71.7125 66.2405 68.5583 68.4169 67.1516 69.3041H67.152ZM82.7511 65.7756C82.3887 65.5219 82.4527 64.6768 83.6674 62.0355C84.1363 61.0001 85.2441 59.2678 87.1411 57.5985C87.3541 58.2746 87.5035 58.9298 87.4821 59.5424C87.4606 63.6205 84.5202 65.1417 82.7511 65.7756Z"
                  fill="#CD6799"/>
        </g>
        <defs>
            <clipPath id="clip0_2_5689">
                <rect width="117" height="87" fill="white"/>
            </clipPath>
        </defs>
    </g>

    <g id="css">
        <path d="M22.1325 101.154L13.71 7.4375H106.29L97.8562 101.139L59.9437 111.562L22.1325 101.154Z" fill="#1572B6"/>
        <path d="M60 103.597L90.6375 95.174L97.845 15.1019H60V103.597Z" fill="#33A9DC"/>
        <path d="M60 49.054H75.3375L76.395 37.2842H60V25.7896H89.0625L88.785 28.8724L85.9387 60.5487H60V49.054Z"
              fill="white"/>
        <path d="M60.0711 78.9045L60.0186 78.9193L47.1112 75.4609L46.2862 66.2942H34.6499L36.2737 84.3413L60.0149 90.8788L60.0711 90.864V78.9045Z"
              fill="#EBEBEB"/>
        <path d="M74.3513 60.0615L72.9563 75.4534L60.03 78.9119V90.8714L83.79 84.3412L83.9663 82.4001L85.98 60.0615H74.3513Z"
              fill="white"/>
        <path d="M60.0411 25.7896V37.2842H32.0436L31.8111 34.6997L31.2824 28.8724L31.0049 25.7896H60.0411ZM59.9999 49.054V60.5487H47.2536L47.0211 57.9642L46.4961 52.1369L46.2186 49.054H59.9999Z"
              fill="#EBEBEB"/>

    </g>

    <g id="html">
        <path d="M22.1323 102.004L13.7061 7.5H106.294L97.856 101.989L59.9436 112.5L22.1323 102.004Z" fill="#E44F26"/>
        <path d="M60 104.468L90.6375 95.9738L97.845 15.2288H60V104.468Z" fill="#F1662A"/>
        <path d="M60 50.2762H44.6625L43.605 38.4075H60V26.8162H30.9375L31.215 29.9287L34.0613 61.8675H60V50.2762ZM60 80.3775L59.9475 80.3925L47.04 76.9087L46.215 67.665H34.5787L36.2025 85.86L59.9475 92.4525L60 92.4375V80.3775Z"
              fill="#EBEBEB"/>
        <path d="M59.959 50.2762V61.8675H74.2315L72.889 76.9012L59.959 80.3887V92.4487L83.7227 85.86L83.8952 83.9025L86.6177 53.3887L86.9027 50.2762H59.959ZM59.959 26.8162V38.4075H87.9565L88.189 35.805L88.7177 29.9287L88.9952 26.8162H59.959Z"
              fill="white"/>

    </g>

    <g id="js">
        <path d="M7.5 7.5H112.5V112.5H7.5V7.5Z" fill="#F5DE19"/>
        <path d="M78.0338 89.5312C78.9284 91.3485 80.3183 92.8759 82.0434 93.9375C83.7684 94.9991 85.7584 95.5515 87.7838 95.5313C91.8713 95.5313 94.485 93.4875 94.485 90.6562C94.485 87.2812 91.8 86.0738 87.3 84.105L84.8325 83.0475C77.7075 80.0138 72.9825 76.215 72.9825 68.1825C72.9825 60.7838 78.6075 55.1475 87.4313 55.1475C90.2877 54.9412 93.1416 55.5805 95.637 56.9856C98.1324 58.3907 100.159 60.4994 101.464 63.0488L93.75 67.98C93.2476 66.716 92.3728 65.6345 91.2416 64.879C90.1105 64.1236 88.7764 63.7298 87.4163 63.75C86.8229 63.6906 86.2236 63.7555 85.6567 63.9404C85.0897 64.1254 84.5675 64.4265 84.1234 64.8244C83.6792 65.2224 83.3228 65.7085 83.0769 66.2518C82.831 66.7951 82.7009 67.3837 82.695 67.98C82.695 70.9388 84.5288 72.1388 88.7625 73.98L91.23 75.0375C99.615 78.6338 104.355 82.2975 104.355 90.5363C104.355 99.42 97.3763 104.287 88.005 104.287C84.3537 104.52 80.713 103.691 77.5223 101.901C74.3317 100.11 71.7274 97.4342 70.0238 94.1963L78.0338 89.5312ZM43.1775 90.3863C44.7263 93.135 46.1363 95.46 49.5263 95.46C52.7663 95.46 54.8138 94.1925 54.8138 89.2612V55.71H64.68V89.3925C64.68 99.6075 58.68 104.257 49.9463 104.257C46.8591 104.426 43.7931 103.657 41.1513 102.051C38.5096 100.444 36.4157 98.0761 35.145 95.2575L43.1775 90.3863Z"
              fill="black"/>

    </g>

    <g id="tailwind">
        <path d="M36.8438 56.0844C40.6646 40.801 50.2167 33.1594 65.5 33.1594C88.425 33.1594 91.2906 50.3531 102.753 53.2187C110.395 55.1292 117.081 52.2635 122.812 44.6219C118.992 59.9052 109.44 67.5469 94.1562 67.5469C71.2313 67.5469 68.3656 50.3531 56.9031 47.4875C49.2615 45.5771 42.575 48.4427 36.8438 56.0844ZM8.1875 90.4719C12.0083 75.1885 21.5604 67.5469 36.8438 67.5469C59.7687 67.5469 62.6344 84.7406 74.0969 87.6062C81.7385 89.5167 88.425 86.651 94.1562 79.0094C90.3354 94.2927 80.7833 101.934 65.5 101.934C42.575 101.934 39.7094 84.7406 28.2469 81.875C20.6052 79.9646 13.9187 82.8302 8.1875 90.4719Z"
              fill="#44A8B3"/>

    </g>

    <g id="vscode">
        <path d="M101.535 17.605L81.3541 7.88899C80.2144 7.33948 78.932 7.15814 77.6847 7.37011C76.4373 7.58208 75.2868 8.17686 74.3926 9.07199L8.3301 69.3C7.52857 70.0273 7.04878 71.0432 6.99627 72.1243C6.94376 73.2053 7.32283 74.2629 8.0501 75.0645C8.1376 75.159 8.2251 75.25 8.3196 75.334L13.7131 80.234C14.4179 80.8754 15.325 81.2497 16.2771 81.2919C17.2291 81.3341 18.1658 81.0416 18.9246 80.465L98.4971 20.125C99.0981 19.6689 99.8145 19.3897 100.566 19.3186C101.317 19.2476 102.073 19.3877 102.749 19.7231C103.425 20.0585 103.993 20.5758 104.391 21.217C104.789 21.8581 105 22.5975 105 23.352V23.1175C105 21.9656 104.675 20.8372 104.062 19.862C103.449 18.8868 102.573 18.1045 101.535 17.605Z"
              fill="#0065A9"/>
        <path d="M101.535 94.395L81.3541 104.115C80.2141 104.662 78.9321 104.843 77.6851 104.631C76.4381 104.419 75.2876 103.825 74.3926 102.932L8.3301 42.7C7.52857 41.9727 7.04878 40.9568 6.99627 39.8758C6.94376 38.7947 7.32283 37.7371 8.0501 36.9355C8.1376 36.841 8.2251 36.75 8.3196 36.666L13.7131 31.766C14.4186 31.1219 15.3278 30.7459 16.2822 30.7037C17.2366 30.6615 18.1755 30.9557 18.9351 31.535L98.4971 91.875C99.0981 92.3311 99.8145 92.6104 100.566 92.6814C101.317 92.7524 102.073 92.6123 102.749 92.2769C103.425 91.9415 103.993 91.4242 104.391 90.783C104.789 90.1419 105 89.4025 105 88.648V88.9C104.996 90.0488 104.669 91.1733 104.057 92.1451C103.444 93.1168 102.57 93.8965 101.535 94.395Z"
              fill="#007ACC"/>
        <path d="M81.3539 104.114C80.2139 104.662 78.9319 104.843 77.6849 104.631C76.4379 104.419 75.2874 103.825 74.3924 102.931C74.895 103.428 75.5329 103.764 76.226 103.899C76.9192 104.034 77.6368 103.962 78.2889 103.691C78.941 103.42 79.4987 102.963 79.892 102.376C80.2853 101.79 80.4968 101.1 80.4999 100.394V11.606C80.5005 10.8965 80.2905 10.2028 79.8965 9.61274C79.5025 9.02271 78.9423 8.56288 78.2867 8.29152C77.6312 8.02016 76.9098 7.94946 76.2141 8.0884C75.5183 8.22734 74.8795 8.56965 74.3784 9.07197C75.2728 8.17717 76.423 7.58235 77.6702 7.3698C78.9173 7.15724 80.1997 7.33744 81.3399 7.88547L101.517 17.5875C102.559 18.0845 103.438 18.8657 104.054 19.8411C104.67 20.8165 104.998 21.9463 105 23.1V88.9C105 90.0528 104.675 91.1822 104.061 92.1581C103.447 93.134 102.571 93.9167 101.531 94.416L81.3539 104.114Z"
              fill="#1F9CF0"/>

    </g>

    <g id="postgrest">
        <path d="M117.889 71.8826C117.189 69.7638 115.357 68.2881 112.987 67.9339C111.869 67.7671 110.589 67.8382 109.075 68.1504C106.435 68.695 104.477 68.9024 103.048 68.9425C108.442 59.8342 112.829 49.4475 115.354 39.6702C119.438 23.8605 117.256 16.6581 114.706 13.4004C107.957 4.77748 98.1117 0.145172 86.2338 0.00343171C79.8974 -0.0740469 74.3349 1.177 71.4331 2.07667C68.7314 1.59995 65.8264 1.33378 62.7783 1.28456C57.0645 1.19341 52.016 2.43899 47.7023 4.99898C45.3141 4.19138 41.4812 3.0529 37.0549 2.32642C26.6445 0.617335 18.2541 1.94906 12.1168 6.28467C4.68528 11.5341 1.24022 20.6547 1.87736 33.3931C2.07972 37.4374 4.3421 49.7429 7.90429 61.413C9.95155 68.1208 12.1346 73.691 14.3929 77.9706C17.5955 84.039 21.0223 87.6126 24.8694 88.896C27.0255 89.6143 30.9432 90.1174 35.0637 86.6856C35.586 87.3182 36.2829 87.9467 37.2076 88.5305C38.3821 89.2711 39.8182 89.8763 41.2524 90.235C46.4212 91.5271 51.2627 91.2039 55.3932 89.3928C55.4187 90.1274 55.4383 90.8293 55.4547 91.4355C55.4821 92.4185 55.5094 93.3825 55.5454 94.284C55.7902 100.379 56.2049 105.119 57.4336 108.435C57.5011 108.617 57.5918 108.895 57.6875 109.19C58.3005 111.067 59.3255 114.209 61.9333 116.669C64.6337 119.218 67.9001 120 70.8917 120C72.392 120 73.8235 119.803 75.0791 119.534C79.5547 118.575 84.6377 117.114 88.3148 111.878C91.7913 106.928 93.4812 99.4736 93.787 87.7274C93.8267 87.3952 93.8631 87.078 93.8982 86.7758L93.9712 86.1551L94.7902 86.2271L95.0012 86.2412C99.5596 86.449 105.134 85.4824 108.557 83.8922C111.262 82.6371 119.93 78.0608 117.889 71.8826Z"
              fill="#1F2626"/>
        <path d="M110.095 73.0839C96.541 75.88 95.609 71.291 95.609 71.291C109.92 50.0559 115.902 23.1011 110.74 16.5041C96.6554 -1.49149 72.2747 7.01931 71.8678 7.23989L71.7369 7.26359C69.0589 6.70757 66.0623 6.37669 62.6938 6.32154C56.5612 6.22128 51.9088 7.92945 48.3785 10.6066C48.3785 10.6066 4.88568 -7.31104 6.90878 33.141C7.33902 41.7466 19.2434 98.2563 33.442 81.1878C38.6317 74.9462 43.6464 69.669 43.6464 69.669C46.1367 71.3234 49.1182 72.1674 52.2438 71.8643L52.4867 71.6583C52.4111 72.4331 52.4457 73.191 52.5838 74.0884C48.9259 78.1752 50.001 78.8926 42.6889 80.3979C35.2896 81.9229 39.6362 84.6374 42.4742 85.3474C45.9147 86.2075 53.874 87.4261 59.252 79.8975L59.0378 80.7566C60.4706 81.9047 61.477 88.2233 61.3083 93.9517C61.1397 99.6796 61.0271 103.612 62.156 106.684C63.2859 109.756 64.4111 116.667 74.0239 114.608C82.0557 112.887 86.2182 108.426 86.7974 100.985C87.2081 95.6958 88.1383 96.4779 88.1966 91.7485L88.9427 89.5099C89.8027 82.3394 89.0794 80.026 94.0275 81.1021L95.2307 81.2078C98.8722 81.3732 103.639 80.6217 106.437 79.3214C112.462 76.5258 116.035 71.8575 110.094 73.0839H110.095Z"
              fill="#336791"/>
        <path d="M50.9251 36.9892C49.7036 36.8192 48.5975 36.9765 48.0379 37.4003C47.7234 37.6387 47.6259 37.9149 47.5994 38.1049C47.5292 38.6085 47.882 39.1654 48.0989 39.4526C48.7124 40.2656 49.6084 40.8244 50.4953 40.9475C50.6238 40.9657 50.7519 40.9739 50.879 40.9739C52.358 40.9739 53.7029 39.8222 53.8214 38.9722C53.9695 37.9076 52.4241 37.1979 50.9251 36.9897"
              fill="white"/>
        <path d="M91.3863 37.0233C91.2696 36.1888 89.7848 35.9509 88.3756 36.1469C86.9682 36.3429 85.6037 36.9782 85.7176 37.8145C85.8088 38.4649 86.9832 39.5751 88.3733 39.5751C88.4909 39.5751 88.6094 39.5673 88.7288 39.5505C89.6567 39.422 90.3376 38.8327 90.6612 38.4931C91.1534 37.9754 91.4387 37.3984 91.3863 37.0233Z"
              fill="white"/>
        <path d="M114.606 72.7665C114.089 71.2037 112.426 70.701 109.662 71.2716C101.456 72.9652 98.5173 71.7921 97.5525 71.0815C103.931 61.3648 109.178 49.619 112.009 38.6604C113.349 33.4693 114.09 28.6483 114.151 24.7188C114.218 20.406 113.483 17.2366 111.968 15.3006C105.86 7.49576 96.8953 3.30918 86.0437 3.19433C78.5834 3.11047 72.2803 5.01963 71.0584 5.55651C68.4852 4.91663 65.68 4.52377 62.626 4.47364C57.0257 4.38294 52.1846 5.72378 48.1767 8.45695C46.4357 7.80886 41.9365 6.2643 36.4341 5.37786C26.9216 3.84652 19.3624 5.00687 13.9681 8.82839C7.53144 13.3887 4.55991 21.5403 5.13553 33.0564C5.32923 36.9308 7.53691 48.8497 11.0207 60.2642C15.6065 75.2877 20.5916 83.7926 25.8364 85.5422C26.4503 85.7469 27.1581 85.89 27.9388 85.89C29.8521 85.89 32.1979 85.0277 34.6385 82.0935C37.6153 78.5225 40.6946 75.0381 43.8726 71.6448C45.9344 72.7514 48.1995 73.3694 50.5161 73.4314C50.5207 73.492 50.5266 73.5526 50.5321 73.6128C50.1333 74.0883 49.7428 74.5707 49.3608 75.0598C47.7556 77.0975 47.4215 77.5218 42.2546 78.5856C40.7848 78.8891 36.8812 79.6935 36.8238 82.4299C36.7618 85.4196 41.4384 86.6752 41.9711 86.8083C43.8279 87.2732 45.6167 87.5024 47.3226 87.5024C51.4714 87.5024 55.1224 86.1388 58.0402 83.5004C57.9504 94.1588 58.3948 104.661 59.6745 107.861C60.7228 110.481 63.2832 116.883 71.3711 116.882C72.5579 116.882 73.8641 116.744 75.3011 116.436C83.7421 114.627 87.4078 110.896 88.8256 102.671C89.5845 98.2751 90.8866 87.7786 91.4991 82.1482C92.7916 82.5516 94.4556 82.7361 96.2545 82.7357C100.006 82.7357 104.335 81.9386 107.05 80.6784C110.1 79.2619 115.604 75.7863 114.606 72.7665ZM94.5044 34.7199C94.4766 36.3821 94.2478 37.8911 94.0053 39.4662C93.7442 41.1602 93.4743 42.9117 93.4064 45.0378C93.3394 47.1069 93.5979 49.2581 93.8476 51.3386C94.3526 55.5407 94.8708 59.8667 92.865 64.1353C92.5318 63.545 92.235 62.9348 91.9763 62.3082C91.727 61.7039 91.1855 60.7331 90.4358 59.3896C87.5194 54.1593 80.6899 41.9113 84.186 36.9135C85.2274 35.4259 87.8704 33.8964 94.5044 34.7199ZM86.463 6.56009C96.1861 6.77475 103.877 10.4121 109.323 17.3706C113.499 22.708 108.9 46.9939 95.5863 67.9455C95.4524 67.7752 95.3178 67.6055 95.1825 67.4364L95.0139 67.2258C98.4544 61.5439 97.7817 55.9222 97.1828 50.938C96.9367 48.8926 96.7043 46.9606 96.7635 45.1458C96.8246 43.2225 97.0789 41.5727 97.325 39.9775C97.6272 38.0118 97.9348 35.9778 97.8501 33.5801C97.9134 33.3285 97.9389 33.0313 97.9057 32.6786C97.6892 30.3793 95.064 23.4978 89.7134 17.2695C86.7866 13.8627 82.5184 10.0503 76.6907 7.4789C79.1973 6.95933 82.6251 6.47486 86.463 6.56009ZM32.0557 79.946C29.3667 83.1791 27.51 82.5593 26.8993 82.356C22.9205 81.0289 18.3037 72.6193 14.2333 59.2838C10.7113 47.745 8.65306 36.1419 8.4899 32.8882C7.97581 22.5982 10.4702 15.4268 15.9041 11.573C24.7476 5.30175 39.2872 9.05536 45.1295 10.9591C45.0457 11.042 44.9582 11.1195 44.8752 11.2038C35.2879 20.8859 35.5153 37.428 35.539 38.4393C35.5381 38.8295 35.5709 39.3818 35.6156 40.1416C35.7806 42.924 36.0878 48.1023 35.2674 53.9665C34.5054 59.416 36.1853 64.7497 39.8756 68.6004C40.2543 68.9948 40.6524 69.3702 41.0683 69.7252C39.4257 71.4844 35.8558 75.3748 32.0557 79.946ZM42.3006 66.2765C39.3264 63.1728 37.9755 58.8559 38.594 54.4314C39.4599 48.2367 39.1404 42.8415 38.9686 39.9429C38.9445 39.5373 38.923 39.1818 38.9107 38.9015C40.3113 37.6595 46.8017 34.1821 51.4304 35.2427C53.5423 35.7262 54.8294 37.1646 55.3645 39.6384C58.1336 52.4466 55.7309 57.7848 53.8003 62.0749C53.4024 62.9586 53.0264 63.794 52.7056 64.6581L52.4567 65.3262C51.8269 67.0153 51.2408 68.5858 50.8775 70.077C47.7155 70.0679 44.6396 68.7171 42.3006 66.276V66.2765ZM42.786 83.5497C41.8627 83.319 41.0323 82.9184 40.5451 82.5862C40.9521 82.3948 41.6763 82.1341 42.9323 81.8752C49.0107 80.6242 49.9496 79.7409 51.9996 77.1381C52.4695 76.541 53.0023 75.8647 53.7401 75.0407L53.741 75.0398C54.8399 73.8092 55.3426 74.018 56.2541 74.3962C56.9929 74.7016 57.7125 75.6277 58.0042 76.6468C58.1423 77.1281 58.2972 78.0414 57.79 78.7524C53.5077 84.7483 47.2675 84.6713 42.786 83.5497ZM74.5974 113.152C67.1613 114.745 64.5283 110.951 62.7933 106.614C61.6735 103.813 61.1229 91.1863 61.5135 77.2415C61.5185 77.056 61.4921 76.8769 61.441 76.7083C61.3954 76.3753 61.3259 76.046 61.2332 75.723C60.6526 73.6939 59.2375 71.9967 57.5398 71.293C56.8653 71.0136 55.6274 70.5009 54.1398 70.8815C54.457 69.5743 55.0071 68.0981 55.6037 66.4998L55.8539 65.8276C56.1356 65.0696 56.4893 64.2844 56.863 63.4531C58.8833 58.9648 61.6502 52.8171 58.6473 38.9288C57.5225 33.7268 53.7661 31.1864 48.0719 31.7766C44.6583 32.1299 41.535 33.5071 39.9772 34.297C39.6422 34.4665 39.3359 34.6306 39.0497 34.7901C39.4845 29.5489 41.1271 19.7538 47.2716 13.5564C51.1405 9.65513 56.2928 7.72819 62.5704 7.83211C74.9397 8.03446 82.8716 14.3822 87.3481 19.6722C91.2056 24.2302 93.2943 28.822 94.1279 31.2986C87.859 30.6609 83.5954 31.8983 81.4342 34.9884C76.7321 41.7099 84.0065 54.7554 87.5026 61.0253C88.1438 62.1742 88.6971 63.1673 88.8712 63.5894C90.0097 66.3485 91.4836 68.1907 92.5596 69.5351C92.8896 69.9472 93.2096 70.3468 93.4529 70.696C91.5543 71.2433 88.1438 72.508 88.4546 78.8298C88.204 82.0019 86.4215 96.8532 85.5159 102.1C84.3205 109.032 81.7696 111.614 74.5974 113.152V113.152ZM105.636 77.6321C103.695 78.5331 100.446 79.209 97.3592 79.3544C93.9502 79.5139 92.2146 78.9725 91.8063 78.6393C91.6149 74.6998 93.081 74.2882 94.6329 73.8525C94.8767 73.7842 95.1146 73.7172 95.3443 73.637C95.487 73.7532 95.6433 73.8685 95.8147 73.9815C98.5547 75.7899 103.442 75.985 110.341 74.5608L110.417 74.5457C109.486 75.4158 107.894 76.5834 105.636 77.6321Z"
              fill="white"/>

    </g>
</svg>
